<?xml version="1.0" encoding="UTF-8"?>
<!DOCTYPE svg PUBLIC "-//W3C//DTD SVG 1.1//EN" "http://www.w3.org/Graphics/SVG/1.1/DTD/svg11.dtd">
<!-- Creator: CorelDRAW X8 -->
<svg xmlns="http://www.w3.org/2000/svg" xml:space="preserve" width="0.139992in" height="0.133331in" version="1.1" style="shape-rendering:geometricPrecision; text-rendering:geometricPrecision; image-rendering:optimizeQuality; fill-rule:evenodd; clip-rule:evenodd"
viewBox="0 0 140 133"
 xmlns:xlink="http://www.w3.org/1999/xlink">
 <defs>
  <style type="text/css">
   <![CDATA[
    .fil1 {fill:#FFBD24}
    .fil0 {fill:#FFBD24;fill-opacity:0.180392}
   ]]>
  </style>
 </defs>
 <g id="Layer_x0020_1">
  <metadata id="CorelCorpID_0Corel-Layer"/>
  <g id="_2497966261024">
   <path class="fil0" d="M10 16l120 0c4,0 6,3 6,6l0 89c0,4 -2,6 -6,6l-120 0c-4,0 -6,-2 -6,-6l0 -89c0,-3 2,-6 6,-6z"/>
   <path class="fil1" d="M10 16l4 0 56 41 56 -41 4 0c4,0 6,3 6,6l0 89c0,4 -2,6 -6,6l-9 0 0 -77 -51 37 -51 -37 0 77 -9 0c-4,0 -6,-2 -6,-6l0 -89c0,-3 2,-6 6,-6z"/>
  </g>
 </g>
</svg>
