<?xml version="1.0" encoding="UTF-8"?>
<!DOCTYPE svg PUBLIC "-//W3C//DTD SVG 1.1//EN" "http://www.w3.org/Graphics/SVG/1.1/DTD/svg11.dtd">
<!-- Creator: CorelDRAW X8 -->
<svg xmlns="http://www.w3.org/2000/svg" xml:space="preserve" width="0.133331in" height="0.133331in" version="1.1" style="shape-rendering:geometricPrecision; text-rendering:geometricPrecision; image-rendering:optimizeQuality; fill-rule:evenodd; clip-rule:evenodd"
viewBox="0 0 133 133"
 xmlns:xlink="http://www.w3.org/1999/xlink">
 <defs>
  <style type="text/css">
   <![CDATA[
    .fil0 {fill:#FFBD24}
   ]]>
  </style>
 </defs>
 <g id="Layer_x0020_1">
  <metadata id="CorelCorpID_0Corel-Layer"/>
  <path class="fil0" d="M44 19c13,0 32,0 46,0 16,1 23,6 24,23 1,14 1,33 0,47 -1,16 -6,23 -23,24 -15,1 -32,1 -48,0 -16,-1 -23,-7 -24,-23 -1,-15 -1,-32 0,-48 1,-16 8,-21 25,-23zm19 32c22,-5 29,29 8,34 -22,5 -32,-28 -8,-34zm-2 -13c-39,9 -27,67 12,59 37,-8 26,-66 -12,-59zm35 -6c-8,2 -4,15 5,12 8,-2 5,-16 -5,-12zm31 57c1,-12 1,-47 -2,-58 -4,-16 -16,-23 -35,-25 -14,-1 -47,-1 -59,2 -17,5 -23,16 -25,36 0,13 -1,46 2,58 4,16 16,25 35,25 14,1 49,2 60,-2 17,-5 22,-16 24,-36z"/>
 </g>
</svg>
