<?xml version="1.0" encoding="UTF-8"?>
<!DOCTYPE svg PUBLIC "-//W3C//DTD SVG 1.1//EN" "http://www.w3.org/Graphics/SVG/1.1/DTD/svg11.dtd">
<!-- Creator: CorelDRAW X8 -->
<svg xmlns="http://www.w3.org/2000/svg" xml:space="preserve" width="1.11999in" height="0.399992in" version="1.1" style="shape-rendering:geometricPrecision; text-rendering:geometricPrecision; image-rendering:optimizeQuality; fill-rule:evenodd; clip-rule:evenodd"
viewBox="0 0 1120 400"
 xmlns:xlink="http://www.w3.org/1999/xlink">
 <defs>
  <style type="text/css">
   <![CDATA[
    .fil0 {fill:#FFBD24;fill-rule:nonzero}
   ]]>
  </style>
 </defs>
 <g id="Layer_x0020_1">
  <metadata id="CorelCorpID_0Corel-Layer"/>
  <path class="fil0" d="M75 74c11,0 21,2 30,8 10,5 17,12 22,21 5,10 8,20 8,33 0,12 -3,23 -8,32 -5,10 -12,17 -22,22 -9,5 -19,8 -30,8 -17,0 -29,-5 -38,-16l0 14 -33 0 0 -166 35 0 0 58c8,-9 21,-14 36,-14zm0 141c11,0 21,2 30,7 10,5 17,13 22,22 5,9 8,20 8,33 0,12 -3,23 -8,32 -5,9 -12,17 -22,22 -9,5 -19,8 -30,8 -15,0 -28,-5 -36,-15l0 56 -35 0 0 -164 33 0 0 14c9,-10 21,-15 38,-15zm-6 95c9,0 16,-3 22,-9 6,-6 8,-14 8,-24 0,-11 -2,-19 -8,-25 -6,-6 -13,-9 -22,-9 -9,0 -16,3 -22,9 -6,6 -9,14 -9,25 0,10 3,18 9,24 6,6 13,9 22,9zm207 -33c0,0 0,4 -1,9l-91 0c2,8 6,14 12,18 6,4 14,7 23,7 6,0 12,-1 16,-3 5,-2 10,-5 14,-9l19 20c-12,13 -28,20 -50,20 -14,0 -26,-3 -36,-8 -11,-6 -19,-13 -24,-22 -6,-10 -9,-21 -9,-32 0,-12 3,-23 9,-32 5,-10 13,-17 23,-23 9,-5 20,-7 32,-7 12,0 23,2 32,7 10,5 17,12 23,22 5,9 8,20 8,33zm-62 -36c-8,0 -15,2 -20,7 -6,4 -9,10 -10,18l59 0c-1,-8 -4,-14 -10,-18 -5,-5 -12,-7 -19,-7zm126 98c-10,0 -20,-2 -29,-4 -10,-3 -18,-6 -23,-9l11 -26c6,4 12,7 20,9 7,2 15,3 22,3 15,0 22,-4 22,-11 0,-3 -2,-6 -6,-7 -4,-2 -10,-3 -18,-4 -10,-2 -18,-3 -25,-5 -6,-2 -12,-6 -16,-10 -5,-5 -7,-12 -7,-22 0,-7 2,-14 6,-20 5,-6 11,-10 19,-14 9,-3 19,-4 30,-4 9,0 17,0 26,2 8,2 15,5 21,8l-12 25c-11,-6 -22,-9 -35,-9 -7,0 -13,1 -16,3 -4,2 -6,5 -6,8 0,4 2,6 6,8 4,1 10,3 19,4 10,2 18,4 24,5 7,2 12,6 17,11 4,5 7,11 7,20 0,8 -3,14 -7,20 -5,6 -11,10 -20,14 -8,3 -18,5 -30,5zm196 -62c0,0 0,4 -1,9l-91 0c2,8 6,14 12,18 6,4 14,7 23,7 6,0 12,-1 16,-3 5,-2 10,-5 14,-9l19 20c-12,13 -28,20 -50,20 -14,0 -26,-3 -36,-8 -11,-6 -19,-13 -24,-22 -6,-10 -9,-21 -9,-32 0,-12 3,-23 9,-32 5,-10 13,-17 23,-23 9,-5 20,-7 32,-7 12,0 23,2 32,7 10,5 17,12 23,22 5,9 8,20 8,33zm-62 -36c-8,0 -15,2 -20,7 -6,4 -9,10 -10,18l59 0c-1,-8 -4,-14 -10,-18 -5,-5 -12,-7 -19,-7zm156 -26c12,0 22,2 31,7 9,5 16,13 22,22 5,9 7,20 7,33 0,12 -2,23 -7,32 -6,9 -13,17 -22,22 -9,5 -19,8 -31,8 -15,0 -27,-5 -36,-15l0 56 -35 0 0 -164 34 0 0 14c8,-10 21,-15 37,-15zm-6 95c9,0 17,-3 22,-9 6,-6 9,-14 9,-24 0,-11 -3,-19 -9,-25 -5,-6 -13,-9 -22,-9 -9,0 -16,3 -22,9 -5,6 -8,14 -8,25 0,10 3,18 8,24 6,6 13,9 22,9zm208 -33c0,0 -1,4 -1,9l-91 0c2,8 5,14 12,18 6,4 13,7 22,7 7,0 12,-1 17,-3 5,-2 9,-5 14,-9l18 20c-11,13 -28,20 -50,20 -13,0 -25,-3 -36,-8 -10,-6 -18,-13 -24,-22 -5,-10 -8,-21 -8,-32 0,-12 3,-23 8,-32 6,-10 13,-17 23,-23 10,-5 21,-7 33,-7 12,0 22,2 32,7 10,5 17,12 22,22 6,9 9,20 9,33zm-63 -36c-8,0 -14,2 -20,7 -5,4 -8,10 -10,18l60 0c-1,-8 -5,-14 -10,-18 -5,-5 -12,-7 -20,-7zm209 -70l0 166 -34 0 0 -14c-8,10 -21,16 -37,16 -12,0 -22,-3 -31,-8 -9,-5 -17,-12 -22,-22 -5,-9 -8,-20 -8,-32 0,-13 3,-24 8,-33 5,-10 13,-17 22,-22 9,-5 19,-7 31,-7 15,0 27,4 36,14l0 -58 35 0zm-65 139c8,0 16,-3 22,-9 5,-6 8,-14 8,-24 0,-11 -3,-19 -8,-25 -6,-6 -14,-9 -22,-9 -9,0 -17,3 -23,9 -5,6 -8,14 -8,25 0,10 3,18 8,24 6,6 14,9 23,9zm145 -95c19,0 33,4 43,13 10,9 15,22 15,40l0 69 -32 0 0 -15c-7,11 -19,17 -37,17 -9,0 -17,-2 -24,-5 -7,-3 -12,-8 -16,-13 -3,-6 -5,-12 -5,-19 0,-11 4,-20 13,-26 8,-7 21,-10 39,-10l27 0c0,-8 -2,-13 -7,-18 -4,-4 -11,-6 -20,-6 -7,0 -13,1 -19,3 -6,2 -12,5 -16,8l-13 -24c7,-5 15,-8 24,-11 9,-2 19,-3 28,-3zm-2 100c6,0 11,-1 16,-4 4,-3 7,-7 9,-12l0 -13 -24 0c-14,0 -21,5 -21,14 0,5 2,8 5,11 4,3 9,4 15,4zm-987 -146c9,0 16,-3 22,-9 6,-6 8,-14 8,-24 0,-10 -2,-18 -8,-24 -6,-7 -13,-10 -22,-10 -9,0 -16,3 -22,10 -6,6 -9,14 -9,24 0,10 3,18 9,24 6,6 13,9 22,9zm136 -95c18,0 33,4 43,13 10,9 15,22 15,40l0 69 -33 0 0 -15c-7,11 -19,17 -37,17 -9,0 -17,-2 -24,-5 -7,-3 -12,-7 -15,-13 -4,-5 -6,-12 -6,-19 0,-11 4,-20 13,-26 8,-7 21,-10 39,-10l28 0c0,-7 -3,-13 -7,-17 -5,-4 -12,-6 -21,-6 -6,0 -13,1 -19,3 -6,2 -11,4 -16,8l-12 -25c6,-4 14,-8 23,-10 10,-3 19,-4 29,-4zm-3 100c6,0 11,-1 16,-4 4,-3 8,-7 10,-12l0 -12 -24 0c-15,0 -22,4 -22,14 0,4 2,8 6,10 3,3 8,4 14,4zm92 -98l35 0 0 120 -35 0 0 -120zm18 -17c-7,0 -12,-2 -16,-6 -4,-4 -6,-8 -6,-14 0,-5 2,-10 6,-14 4,-3 9,-5 16,-5 6,0 11,2 15,5 4,4 6,8 6,14 0,5 -2,10 -6,14 -4,4 -9,6 -15,6zm101 90l-17 16 0 31 -34 0 0 -166 34 0 0 94 51 -48 42 0 -50 51 55 69 -43 0 -38 -47zm95 -73l35 0 0 120 -35 0 0 -120zm18 -17c-7,0 -12,-2 -16,-6 -4,-4 -6,-8 -6,-14 0,-5 2,-10 6,-14 4,-3 9,-5 16,-5 6,0 11,2 15,5 4,4 6,8 6,14 0,5 -2,10 -6,14 -4,4 -9,6 -15,6zm123 15c15,0 27,4 36,13 9,9 14,22 14,40l0 69 -35 0 0 -64c0,-9 -2,-16 -6,-21 -5,-5 -11,-7 -19,-7 -8,0 -15,3 -21,8 -5,6 -7,14 -7,24l0 60 -35 0 0 -120 33 0 0 14c5,-5 10,-9 17,-12 7,-3 15,-4 23,-4z"/>
 </g>
</svg>
