<?xml version="1.0" encoding="UTF-8"?>
<!DOCTYPE svg PUBLIC "-//W3C//DTD SVG 1.1//EN" "http://www.w3.org/Graphics/SVG/1.1/DTD/svg11.dtd">
<!-- Creator: CorelDRAW X8 -->
<svg xmlns="http://www.w3.org/2000/svg" xml:space="preserve" width="0.133331in" height="0.133331in" version="1.1" style="shape-rendering:geometricPrecision; text-rendering:geometricPrecision; image-rendering:optimizeQuality; fill-rule:evenodd; clip-rule:evenodd"
viewBox="0 0 133 133"
 xmlns:xlink="http://www.w3.org/1999/xlink">
 <defs>
  <style type="text/css">
   <![CDATA[
    .fil0 {fill:#FFBD24}
   ]]>
  </style>
 </defs>
 <g id="Layer_x0020_1">
  <metadata id="CorelCorpID_0Corel-Layer"/>
  <path class="fil0" d="M46 35c-3,1 -7,6 -8,9 -2,5 -1,10 1,15 1,4 7,12 10,15 0,1 0,1 1,2 2,2 2,3 5,5 6,6 10,8 18,12 2,0 4,1 6,2 3,1 4,1 8,1 3,-1 4,-1 6,-3 2,-1 4,-2 5,-4 1,-1 2,-4 2,-6 0,-2 -1,-2 -2,-3l-8 -5c-1,0 -5,-2 -6,-2 -1,0 -3,3 -3,3 -1,1 -1,1 -1,2l-2 2c-1,1 -2,1 -3,1 -3,-1 -7,-4 -10,-6 0,0 -1,0 -1,-1 -1,-1 -1,-1 -2,-2l-2 -2c-2,-2 -7,-8 -7,-10 0,-1 1,-2 2,-3l2 -2c0,-1 1,-2 1,-3 1,-1 0,-2 0,-3 -1,-2 -4,-11 -5,-12 -1,-2 -1,-2 -3,-2 -1,0 -3,0 -4,0zm-26 79c0,-1 5,-13 5,-15 1,-4 2,-4 1,-5 -9,-12 -11,-29 -7,-43 1,-4 2,-7 4,-10 2,-4 4,-7 7,-10l1 -2c2,-2 5,-4 8,-6 14,-10 32,-12 48,-5 27,11 40,43 26,70 -3,6 -5,8 -8,12 -2,2 -5,5 -7,7 -2,1 -3,1 -5,2 -16,10 -37,9 -53,-1 -1,-1 -1,0 -2,0 -1,1 -2,1 -3,1 -1,1 -3,1 -5,2 -2,1 -8,2 -10,3zm10 8c2,-1 4,-2 6,-2 1,-1 2,-1 3,-1 4,3 11,5 15,6 21,5 40,-2 52,-12 6,-5 11,-11 15,-18 4,-7 7,-16 8,-26 1,-10 -1,-20 -5,-28 -3,-8 -8,-15 -13,-20 -1,0 -1,-1 -1,-1l-4 -3c-3,-2 -4,-3 -7,-5 -11,-6 -24,-9 -38,-8 -9,1 -17,4 -25,8 -3,2 -4,4 -7,6 -1,0 -1,0 -1,1 -1,0 -1,0 -1,1 -2,1 -3,2 -5,4 -7,8 -11,16 -14,27 -3,14 -1,29 5,42 2,4 2,3 2,5 -1,3 -2,5 -2,7 -2,4 -3,8 -5,12 0,3 -3,11 -4,13l26 -8z"/>
 </g>
</svg>
