<?xml version="1.0" encoding="UTF-8"?>
<!DOCTYPE svg PUBLIC "-//W3C//DTD SVG 1.1//EN" "http://www.w3.org/Graphics/SVG/1.1/DTD/svg11.dtd">
<!-- Creator: CorelDRAW X8 -->
<svg xmlns="http://www.w3.org/2000/svg" xml:space="preserve" width="0.133331in" height="0.133331in" version="1.1" style="shape-rendering:geometricPrecision; text-rendering:geometricPrecision; image-rendering:optimizeQuality; fill-rule:evenodd; clip-rule:evenodd"
viewBox="0 0 133 133"
 xmlns:xlink="http://www.w3.org/1999/xlink">
 <defs>
  <style type="text/css">
   <![CDATA[
    .fil0 {fill:#FFBD24}
   ]]>
  </style>
 </defs>
 <g id="Layer_x0020_1">
  <metadata id="CorelCorpID_0Corel-Layer"/>
  <path class="fil0" d="M71 126l0 -46 -16 0 0 -18 16 0c0,-6 -1,-12 0,-18 2,-10 8,-17 19,-18 2,-1 13,-1 18,-1l0 17c-6,0 -14,-1 -17,3 -2,2 -2,13 -2,17l18 0 -2 18 -16 0 0 46c10,0 19,0 28,0l2 0c2,0 3,0 5,-2 0,0 1,-1 1,-1 0,-1 1,-2 1,-3l0 -14 0 -86 0 -7c0,-1 -1,-2 -1,-3 -2,-2 -4,-3 -7,-3l-105 0c-2,1 -4,2 -5,4 0,1 -1,2 -1,3l0 104c0,3 1,5 3,6 1,1 2,2 3,2l29 0c10,0 19,0 29,0z"/>
 </g>
</svg>
